<?xml version="1.0" standalone="no"?>
<!DOCTYPE svg PUBLIC "-//W3C//DTD SVG 20010904//EN"
 "http://www.w3.org/TR/2001/REC-SVG-20010904/DTD/svg10.dtd">
<svg version="1.0" xmlns="http://www.w3.org/2000/svg"
 width="270.000000pt" height="318.000000pt" viewBox="0 0 270.000000 318.000000"
 preserveAspectRatio="xMidYMid meet">

<g transform="translate(0.000000,318.000000) scale(0.100000,-0.100000)"
fill="#000000" stroke="none">
<path d="M2237 3094 c-6 -55 -48 -159 -88 -215 -12 -17 -20 -32 -17 -34 2 -2
31 2 66 10 58 12 63 11 73 -6 7 -14 21 -19 50 -19 32 0 47 -7 85 -42 55 -51
87 -103 118 -195 l24 -70 -35 -27 -34 -28 3 28 c4 35 -39 62 -114 71 -29 3
-56 11 -60 17 -4 6 -8 34 -8 62 0 57 -17 117 -31 108 -5 -3 -9 -31 -9 -63 0
-66 -25 -147 -49 -160 -9 -5 -42 -14 -73 -21 -54 -12 -58 -15 -64 -47 -7 -37
-19 -41 -53 -14 -24 19 -24 19 -12 107 8 57 25 118 46 168 19 44 33 82 31 84
-2 2 -23 -21 -45 -50 -53 -71 -113 -201 -119 -259 -4 -40 0 -53 30 -98 l35
-51 41 36 c33 28 64 41 151 65 l109 29 69 -26 c37 -14 90 -36 117 -50 27 -14
51 -22 55 -17 3 4 19 23 36 41 28 31 29 36 26 114 -4 114 -31 169 -141 279
-98 99 -155 189 -171 271 -15 75 -34 76 -42 2z"/>
<path d="M895 2788 c-7 -22 -25 -131 -25 -155 0 -13 6 -23 14 -23 8 0 28 -11
43 -25 l28 -24 -57 -1 c-53 0 -58 -2 -58 -22 0 -14 13 -34 34 -50 30 -24 73
-109 133 -265 4 -9 -4 -9 -33 -1 -38 10 -128 4 -172 -13 l-25 -10 28 -29 c34
-35 42 -36 70 -10 19 18 25 19 63 7 l42 -12 -23 -29 c-22 -27 -28 -28 -101
-30 l-78 -1 -34 56 -34 57 71 117 72 117 -20 20 -21 20 -57 -106 c-83 -156
-83 -155 -53 -207 37 -64 28 -77 -72 -106 -246 -71 -438 -211 -515 -375 -39
-84 -65 -199 -65 -292 l0 -64 58 -32 c51 -28 60 -30 87 -20 318 128 484 155
894 148 127 -2 221 0 209 5 -94 35 -508 97 -645 97 -146 0 -332 -44 -431 -101
-18 -10 -36 -19 -39 -19 -11 0 7 120 27 181 84 247 315 387 670 406 177 9 301
-29 441 -136 92 -69 174 -164 215 -246 31 -62 35 -81 35 -146 0 -41 -5 -87
-10 -102 -10 -26 -9 -29 25 -43 20 -8 39 -12 43 -9 3 4 6 59 6 123 0 112 -1
120 -33 182 -86 171 -317 368 -508 435 -87 30 -94 53 -40 120 20 24 36 46 36
49 0 3 -27 46 -59 96 -33 49 -65 105 -71 125 -10 31 -9 38 14 68 32 42 32 50
3 79 -17 17 -29 48 -42 111 -17 84 -30 113 -40 85z"/>
<path d="M2293 2243 l2 -187 -33 -7 c-39 -8 -39 -7 -45 129 -4 92 -5 94 -38
122 l-34 28 -8 -27 c-4 -14 -7 -82 -6 -151 l1 -124 -26 -9 c-15 -5 -30 -7 -33
-3 -3 3 -6 82 -7 175 l-1 169 -29 -46 c-28 -45 -28 -46 -25 -181 l4 -135 -90
-26 -90 -26 -3 -76 c-3 -76 -2 -77 26 -92 33 -17 56 -65 67 -140 6 -41 12 -50
37 -61 28 -11 41 -7 179 53 82 36 147 67 145 69 -2 2 -69 -17 -149 -42 -80
-25 -147 -45 -150 -45 -2 0 -7 28 -10 61 -3 41 -13 72 -27 91 -12 17 -18 33
-14 37 12 10 404 121 428 121 15 0 17 -7 14 -50 -3 -51 5 -66 17 -30 4 11 15
20 26 20 18 0 19 -5 13 -37 l-7 -38 26 24 c22 20 29 22 42 11 11 -9 14 -22 10
-42 -8 -32 -5 -33 35 -13 24 13 33 13 50 3 11 -7 20 -15 20 -18 0 -3 -21 -17
-45 -32 l-45 -27 -75 34 c-42 19 -80 35 -84 35 -20 0 -21 -129 -10 -852 7
-422 10 -770 7 -774 -4 -3 -33 8 -66 26 l-60 32 -7 102 c-4 56 -10 108 -14
114 -5 8 -19 10 -39 6 l-31 -6 -3 -86 -3 -85 -48 44 -47 44 -10 405 c-12 512
-19 670 -30 690 -6 9 -10 -234 -10 -613 l0 -629 -32 7 c-77 17 -98 32 -200
144 -99 109 -103 115 -113 175 l-10 61 -330 37 c-182 20 -344 37 -361 37 l-31
1 -8 -77 -7 -78 -87 -72 -88 -72 -339 39 c-186 22 -343 39 -348 37 -5 -2 49
-65 119 -140 l127 -137 82 7 c149 14 757 8 996 -10 348 -27 561 -47 605 -57
22 -5 157 -21 300 -35 143 -14 270 -30 282 -35 l23 -10 -7 809 c-7 918 -13
846 77 878 45 16 50 21 50 48 0 16 3 60 7 97 l6 68 -92 42 -92 42 3 150 c3
135 1 155 -17 191 -18 36 -28 43 -105 72 -47 17 -90 32 -97 32 -9 1 -12 -45
-10 -186z m146 18 c10 -32 16 -241 6 -241 -2 0 -20 7 -39 16 l-34 17 5 101 c5
97 26 168 42 150 5 -5 13 -24 20 -43z m-111 -282 c3 -25 -1 -27 -197 -77 -110
-29 -207 -52 -215 -52 -12 0 -16 10 -16 40 0 22 1 40 3 40 1 1 92 18 202 39
110 21 205 38 210 37 6 -2 11 -14 13 -27z m162 -841 c0 -54 -2 -98 -5 -98 -3
0 -21 7 -40 14 l-35 15 0 103 c0 80 4 109 17 127 l16 24 23 -44 c19 -37 23
-60 24 -141z m-31 -149 l31 -11 0 -105 c0 -92 -2 -104 -16 -99 -9 3 -27 9 -40
12 -23 6 -24 9 -24 110 0 57 4 104 9 104 4 0 22 -5 40 -11z m29 -388 l3 -114
-33 7 c-18 3 -37 12 -43 20 -6 7 -9 56 -7 113 l3 100 37 -6 37 -6 3 -114z
m-1219 -299 l26 -23 -75 6 c-41 4 -156 16 -255 28 l-180 22 140 76 140 77 89
-82 c48 -44 100 -91 115 -104z m1212 128 c5 0 9 -24 9 -52 -1 -58 -9 -53 -35
23 -13 37 -13 40 1 35 9 -3 20 -6 25 -6z"/>
<path d="M846 2330 c-16 -39 -26 -73 -23 -76 3 -3 18 1 33 9 26 14 28 18 25
73 -1 33 -4 60 -5 62 -2 1 -15 -30 -30 -68z"/>
<path d="M1178 1836 c29 -30 52 -61 50 -68 -3 -7 -28 -21 -56 -32 -29 -10 -52
-23 -52 -28 0 -5 50 -32 110 -60 61 -28 110 -55 110 -60 0 -5 -109 -8 -243 -7
-188 1 -250 -2 -277 -13 -34 -14 -31 -15 99 -27 258 -23 392 -56 483 -117 68
-46 89 -50 113 -23 15 16 20 34 19 73 -2 92 -59 185 -160 265 -49 39 -231 151
-244 151 -4 0 18 -25 48 -54z"/>
<path d="M2262 1860 c-16 -21 -22 -43 -22 -80 0 -64 19 -63 34 1 9 37 15 44
39 47 33 4 35 25 5 46 -30 21 -31 21 -56 -14z"/>
<path d="M2146 1818 c-20 -28 -22 -132 -3 -126 6 3 13 20 15 39 4 40 18 59 43
59 28 0 24 36 -3 44 -34 9 -35 8 -52 -16z"/>
<path d="M2032 1777 c-17 -18 -22 -36 -22 -80 0 -46 3 -55 15 -51 8 4 15 17
15 31 0 38 18 63 45 63 31 0 33 23 3 44 -29 21 -30 20 -56 -7z"/>
<path d="M2140 1595 c0 -4 7 -19 15 -35 16 -31 30 -36 55 -20 13 9 10 14 -15
35 -28 23 -55 33 -55 20z"/>
<path d="M2258 1548 c-47 -72 -50 -84 -32 -144 9 -30 14 -57 12 -59 -2 -3 -21
9 -42 26 -20 17 -38 30 -40 28 -22 -31 -46 -86 -46 -107 l0 -27 33 38 32 37
44 -25 c23 -14 47 -25 52 -25 4 0 6 35 3 78 -5 67 -2 85 19 140 l26 62 -24 0
c-13 0 -29 -10 -37 -22z"/>
<path d="M2053 1401 c18 -28 35 -50 40 -50 4 -1 7 16 7 37 0 32 -5 41 -25 50
-50 23 -55 14 -22 -37z"/>
<path d="M847 1399 c-113 -11 -308 -51 -420 -85 -48 -15 -86 -29 -84 -30 2 -2
64 5 138 16 100 15 186 20 339 20 113 0 211 -4 218 -9 10 -6 7 -12 -12 -24
-19 -13 -49 -17 -118 -17 -135 0 -360 -18 -456 -35 -86 -16 -261 -70 -276 -85
-21 -21 82 -21 345 1 337 27 372 24 454 -45 71 -60 70 -60 112 -31 21 14 41
25 45 25 4 0 17 -18 28 -41 18 -35 20 -51 14 -119 l-6 -78 43 -9 44 -9 7 36
c4 19 7 63 7 96 1 45 6 68 20 85 l19 23 21 -42 c16 -32 21 -59 21 -126 0 -82
1 -84 26 -90 15 -4 28 -5 30 -3 2 2 7 37 10 78 5 56 12 82 29 103 l23 29 21
-42 c18 -34 21 -56 19 -118 l-3 -76 34 -9 c18 -5 35 -7 38 -4 3 2 11 62 19
133 l15 128 -32 29 -32 28 32 25 32 26 -27 28 -28 29 28 29 28 29 -74 36 c-94
46 -235 82 -379 95 -128 12 -184 12 -312 0z"/>
<path d="M2162 1244 c-17 -34 -22 -63 -22 -124 l0 -79 43 13 42 12 2 94 c3 89
1 96 -20 112 -23 16 -24 16 -45 -28z"/>
<path d="M838 1103 c-46 -31 -51 -57 -10 -47 15 4 29 8 31 10 3 3 15 -6 28
-18 20 -19 23 -31 23 -105 l0 -83 -94 0 c-51 0 -121 -3 -155 -6 l-61 -7 0 86
c0 82 -7 106 -46 165 -6 10 -52 -24 -67 -49 -24 -42 -22 -46 18 -41 l35 4 0
-85 0 -85 -37 -6 c-21 -4 -50 -9 -64 -12 l-27 -5 -12 101 c-12 100 -34 150
-65 150 -20 0 -52 -32 -60 -60 l-8 -24 28 18 c27 18 29 18 42 0 8 -12 13 -49
13 -108 l0 -91 -70 -16 -70 -16 0 113 0 113 -30 16 c-39 20 -45 19 -58 -9 -9
-20 -7 -25 14 -35 23 -10 24 -14 24 -116 0 -97 -1 -105 -19 -105 -11 0 -38
-19 -61 -42 -36 -38 -40 -47 -35 -78 8 -44 40 -73 75 -67 337 67 564 91 850
91 239 0 339 -7 547 -41 l103 -17 34 40 c29 34 32 42 24 66 -12 34 -44 58 -76
58 -22 0 -23 -3 -17 -40 4 -22 3 -40 -2 -40 -5 0 -74 10 -153 22 -193 29 -592
31 -775 5 -222 -31 -399 -68 -428 -89 -17 -11 -35 -17 -47 -13 -23 7 -62 54
-55 66 9 13 218 78 335 104 179 40 282 49 540 49 135 0 238 2 230 3 -9 2 -72
9 -140 16 l-125 12 -5 104 -5 104 -40 32 -40 33 -37 -25z"/>
<path d="M2184 992 c-29 -13 -32 -19 -38 -81 -11 -122 -9 -141 17 -141 51 0
58 16 55 131 l-3 106 -31 -15z"/>
<path d="M2173 715 l-33 -14 0 -117 0 -116 31 6 c17 3 35 6 40 6 5 0 9 56 9
125 0 69 -3 125 -7 125 -5 -1 -23 -7 -40 -15z"/>
</g>
</svg>
