<svg xmlns="http://www.w3.org/2000/svg" xmlns:xlink="http://www.w3.org/1999/xlink" width="92" height="92" viewBox="0 0 92 92">
  <defs>
    <clipPath id="clip-path">
      <circle id="Base" cx="40" cy="40" r="40" fill="#0e4dfb" style="mix-blend-mode: lighten;isolation: isolate"/>
    </clipPath>
  </defs>
  <g id="Thumb" transform="translate(6 6)">
    <g id="Base-2" data-name="Base" fill="#fdc42c" stroke="#fff" stroke-width="6">
      <circle cx="40" cy="40" r="40" stroke="none"/>
      <circle cx="40" cy="40" r="43" fill="none"/>
    </g>
    <g id="Thumb-2" data-name="Thumb" clip-path="url(#clip-path)">
      <path id="lock_opened" data-name="lock opened" d="M13.494,26.987a1.368,1.368,0,0,0-1.349,1.349v5.4a1.349,1.349,0,0,0,2.7,0v-5.4a1.368,1.368,0,0,0-1.349-1.349Zm0-10.795a13.156,13.156,0,0,0-4.343.717A13.687,13.687,0,0,0,5.4,18.891v-8.1A7.808,7.808,0,0,1,7.759,5.06,7.808,7.808,0,0,1,13.494,2.7,7.808,7.808,0,0,1,19.228,5.06a7.808,7.808,0,0,1,2.361,5.735h2.7a10.505,10.505,0,0,0-.843-4.2A10.877,10.877,0,0,0,17.689.843,10.505,10.505,0,0,0,13.494,0,10.505,10.505,0,0,0,9.3.843,10.877,10.877,0,0,0,3.542,6.6a10.505,10.505,0,0,0-.843,4.2V21.632A13.767,13.767,0,0,0,.717,25.364,12.971,12.971,0,0,0,0,29.686a13.218,13.218,0,0,0,1.054,5.25,13.437,13.437,0,0,0,7.19,7.19,13.218,13.218,0,0,0,5.25,1.054,13.218,13.218,0,0,0,5.25-1.054,13.437,13.437,0,0,0,7.19-7.19,13.6,13.6,0,0,0,0-10.5,13.437,13.437,0,0,0-7.19-7.19A13.218,13.218,0,0,0,13.494,16.192Zm0,24.289a10.505,10.505,0,0,1-4.2-.843,10.877,10.877,0,0,1-5.756-5.756,10.858,10.858,0,0,1,0-8.391A10.877,10.877,0,0,1,9.3,19.734a10.505,10.505,0,0,1,4.2-.843,10.505,10.505,0,0,1,4.2.843,10.877,10.877,0,0,1,5.756,5.756,10.858,10.858,0,0,1,0,8.391,10.877,10.877,0,0,1-5.756,5.756A10.505,10.505,0,0,1,13.494,40.481Zm21.59,0" transform="translate(25 18)" fill="#fff"/>
    </g>
  </g>
</svg>
