<svg width="22" height="22" viewBox="0 0 22 22" fill="none" xmlns="http://www.w3.org/2000/svg">
<path d="M16.5 3.66683H14.4375V2.521C14.4375 2.14516 14.1258 1.8335 13.75 1.8335C13.3742 1.8335 13.0625 2.14516 13.0625 2.521V19.4793C13.0625 19.8552 13.3742 20.1668 13.75 20.1668C14.1258 20.1668 14.4375 19.8552 14.4375 19.4793V18.3335H16.5C18.5258 18.3335 20.1667 16.6927 20.1667 14.6668V7.3335C20.1667 5.30766 18.5258 3.66683 16.5 3.66683Z" fill="#1373C3"/>
<path d="M5.95841 3.6665C3.93258 3.6665 2.29175 5.30734 2.29175 7.33317V14.6665C2.29175 16.6923 3.93258 18.3332 5.95841 18.3332H10.5417C11.0459 18.3332 11.4584 17.9207 11.4584 17.4165V4.58317C11.4584 4.079 11.0459 3.6665 10.5417 3.6665H5.95841ZM6.11425 11.3482C6.06841 11.4582 6.00425 11.559 5.92175 11.6507C5.83008 11.7332 5.72925 11.7973 5.61925 11.8432C5.50925 11.889 5.39008 11.9165 5.27091 11.9165C5.15175 11.9165 5.03258 11.889 4.92258 11.8432C4.81258 11.7973 4.71175 11.7332 4.62008 11.6507C4.53758 11.559 4.47341 11.4582 4.41841 11.3482C4.37258 11.2382 4.35425 11.119 4.35425 10.9998C4.35425 10.7615 4.45508 10.5232 4.62008 10.349C4.66591 10.3123 4.71175 10.2757 4.75758 10.239C4.81258 10.2023 4.86758 10.1748 4.92258 10.1565C4.97758 10.129 5.03258 10.1107 5.08758 10.1015C5.39925 10.0373 5.71091 10.1382 5.92175 10.349C6.08675 10.5232 6.18758 10.7615 6.18758 10.9998C6.18758 11.119 6.16008 11.2382 6.11425 11.3482ZM9.32258 11.3482C9.27675 11.4582 9.21258 11.559 9.13008 11.6507C9.03841 11.7332 8.93758 11.7973 8.82758 11.8432C8.71758 11.889 8.59841 11.9165 8.47925 11.9165C8.36008 11.9165 8.24091 11.889 8.13091 11.8432C8.02091 11.7973 7.92008 11.7332 7.82841 11.6507C7.65425 11.4765 7.56258 11.2473 7.56258 10.9998C7.56258 10.8807 7.59008 10.7615 7.63591 10.6515C7.68175 10.5323 7.74591 10.4407 7.82841 10.349C8.16758 10.0098 8.78175 10.0098 9.13008 10.349C9.29508 10.5232 9.39591 10.7615 9.39591 10.9998C9.39591 11.119 9.36841 11.2382 9.32258 11.3482Z" fill="#1373C3"/>
</svg>
