<svg id="_Icon_-_L" data-name="💚 Icon - L" xmlns="http://www.w3.org/2000/svg" width="24" height="24" viewBox="0 0 24 24">
  <path id="mobile-android" d="M11,20H3a3,3,0,0,1-3-3V3A3,3,0,0,1,3,0h8a3,3,0,0,1,3,3V17A3,3,0,0,1,11,20ZM3,2A1,1,0,0,0,2,3V17a1,1,0,0,0,1,1h8a1,1,0,0,0,1-1V3a1,1,0,0,0-1-1ZM7,15.984A1,1,0,0,1,6.08,14.6a1.147,1.147,0,0,1,.21-.329A1,1,0,0,1,7.2,14l.18.079a.787.787,0,0,1,.18.09l.15.121a.99.99,0,0,1,0,1.4,1.483,1.483,0,0,1-.33.22A.991.991,0,0,1,7,15.984Z" transform="translate(5 2)" fill="#42526e"/>
</svg>
